<svg width="40" height="40" viewBox="0 0 40 40" fill="none" xmlns="http://www.w3.org/2000/svg">
<path d="M18.9922 33.9426C19.0808 33.6394 19.162 33.3614 19.2358 33.1087C19.3244 32.856 19.4204 32.5613 19.5238 32.2243C19.5976 31.9885 19.6641 31.7695 19.7231 31.5674C19.797 31.3652 19.8708 31.1631 19.9446 30.9609C19.9742 30.843 20.0037 30.7335 20.0332 30.6325C20.0628 30.5145 20.1071 30.3798 20.1661 30.2282C20.2104 30.0766 20.24 29.9671 20.2547 29.8997C20.2695 29.8323 20.2843 29.7818 20.299 29.7481C20.3286 29.6975 20.3581 29.6386 20.3876 29.5712C20.4172 29.5038 20.4615 29.3859 20.5205 29.2175C20.5944 28.9816 20.646 28.8132 20.6756 28.7121C20.7199 28.611 20.7568 28.4763 20.7863 28.3078C20.8159 28.1899 20.8454 28.0636 20.8749 27.9288C20.9045 27.794 20.9414 27.6256 20.9857 27.4234V26.8928H20.9192C20.8897 26.8928 20.8602 26.8928 20.8306 26.8928C20.8011 26.876 20.7716 26.8675 20.742 26.8675C20.5944 26.8844 20.2621 26.8928 19.7453 26.8928C19.2284 26.876 18.5935 26.9349 17.8404 27.0697L15.7362 26.8928C15.618 26.8928 15.5147 26.9012 15.4261 26.9181C15.3375 26.9181 15.2267 26.9265 15.0938 26.9433C14.9609 26.9602 14.7837 26.9939 14.5622 27.0444C14.3555 27.0781 14.0675 27.1202 13.6984 27.1707C13.6984 27.3055 13.6541 27.4066 13.5655 27.474C13.4916 27.5413 13.4326 27.6593 13.3883 27.8277C13.344 27.9625 13.3071 28.0636 13.2775 28.1309C13.2628 28.1983 13.248 28.2657 13.2332 28.3331C13.2185 28.3836 13.1963 28.451 13.1668 28.5352C13.152 28.6026 13.1151 28.7121 13.056 28.8637C13.0117 29.049 12.9748 29.1838 12.9453 29.268C12.9157 29.3522 12.8936 29.428 12.8788 29.4954C12.8641 29.5459 12.8419 29.6049 12.8124 29.6723C12.7828 29.7228 12.7459 29.807 12.7016 29.925C12.5835 30.2619 12.4949 30.5314 12.4358 30.7335C12.3768 30.9188 12.3251 31.0957 12.2808 31.2642C12.2365 31.4158 12.1922 31.5758 12.1479 31.7443C12.1036 31.9127 12.0298 32.1485 11.9264 32.4518C11.8526 32.7887 11.7713 33.0919 11.6827 33.3614C11.6089 33.6309 11.5425 33.8836 11.4834 34.1194C11.3653 34.49 11.2693 34.8185 11.1954 35.1049C11.1216 35.3913 11.0256 35.6271 10.9075 35.8124C10.7303 35.9472 10.5679 36.0735 10.4202 36.1914C10.2725 36.2925 10.0658 36.343 9.8 36.343C9.4899 36.343 9.24625 36.3262 9.06906 36.2925C8.90662 36.2588 8.76634 36.1409 8.64821 35.9387C8.57438 35.8545 8.53008 35.7534 8.51531 35.6355C8.50054 35.5176 8.49316 35.3997 8.49316 35.2818C8.49316 35.2144 8.50793 35.1133 8.53746 34.9786C8.56699 34.8438 8.60391 34.709 8.64821 34.5743C8.69251 34.4227 8.72942 34.2879 8.75896 34.17C8.80326 34.0352 8.82541 33.9426 8.82541 33.892C8.88447 33.7067 8.92877 33.5551 8.95831 33.4372C9.00261 33.3024 9.04691 33.1677 9.09121 33.0329C9.1355 32.8982 9.1798 32.7466 9.2241 32.5781C9.28317 32.4096 9.357 32.1907 9.4456 31.9211C9.47514 31.8538 9.50467 31.7443 9.5342 31.5926C9.56374 31.4242 9.60065 31.2726 9.64495 31.1378C9.68925 30.9525 9.72617 30.8009 9.7557 30.683C9.78523 30.5651 9.81477 30.4556 9.8443 30.3545C9.87383 30.2534 9.90337 30.1524 9.9329 30.0513C9.9772 29.9334 10.0215 29.7986 10.0658 29.647C10.0658 29.6133 10.0806 29.5459 10.1101 29.4449C10.1544 29.327 10.1987 29.209 10.243 29.0911C10.2873 28.9564 10.3242 28.8384 10.3537 28.7374C10.398 28.6194 10.4276 28.5436 10.4423 28.51C10.4719 28.4426 10.5236 28.3078 10.5974 28.1057C10.6712 27.9035 10.7081 27.7519 10.7081 27.6508C10.7081 27.6172 10.6934 27.6003 10.6638 27.6003C10.59 27.5666 10.5162 27.5413 10.4423 27.5245C10.3833 27.5077 10.3316 27.4992 10.2873 27.4992C10.1839 27.4992 10.0806 27.5161 9.9772 27.5498C9.8886 27.5835 9.78523 27.6003 9.6671 27.6003C9.54897 27.6003 9.45299 27.5919 9.37915 27.575C9.30532 27.5582 9.20195 27.5498 9.06906 27.5498C8.75896 27.5498 8.50054 27.5666 8.29381 27.6003C8.10185 27.634 7.8582 27.6508 7.56287 27.6508L6.07883 27.4234C5.7392 27.4908 5.43648 27.5329 5.17068 27.5498C4.90489 27.5498 4.7203 27.5498 4.61694 27.5498C4.43974 27.5498 4.25516 27.5413 4.06319 27.5245C3.87123 27.4908 3.69403 27.4403 3.5316 27.3729C3.38393 27.3055 3.25841 27.2129 3.15505 27.0949C3.05168 26.9602 3 26.7917 3 26.5896C3 26.438 3 26.2695 3 26.0842C3.01477 25.8989 3.05168 25.7221 3.11075 25.5536C3.16982 25.3683 3.25841 25.2083 3.37655 25.0735C3.50945 24.9219 3.69403 24.804 3.93029 24.7198C4.09273 24.6861 4.24777 24.6608 4.39544 24.644C4.55787 24.6271 4.7203 24.6187 4.88274 24.6187C5.26667 24.6187 5.6506 24.644 6.03453 24.6945C6.43322 24.7282 6.80239 24.745 7.14202 24.745C7.48165 24.745 7.83605 24.7619 8.20521 24.7956C8.57438 24.8292 8.92139 24.8461 9.24625 24.8461C9.34962 24.8461 9.45299 24.8292 9.55635 24.7956C9.67448 24.745 9.7557 24.7198 9.8 24.7198C9.85907 24.7198 9.96243 24.7198 10.1101 24.7198C10.2725 24.7029 10.435 24.6945 10.5974 24.6945C10.7598 24.6776 10.9001 24.6692 11.0182 24.6692C11.1511 24.6524 11.225 24.6355 11.2397 24.6187C11.5203 24.4671 11.6975 24.2649 11.7713 24.0123C11.8599 23.7596 11.9412 23.5406 12.015 23.3553C12.1774 23.0184 12.3251 22.5972 12.458 22.0919C12.6056 21.5865 12.8271 21.0054 13.1225 20.3484C13.1668 20.2136 13.2258 20.0452 13.2997 19.843C13.3735 19.6409 13.44 19.4303 13.499 19.2113C13.5729 18.9755 13.6319 18.7481 13.6762 18.5291C13.7353 18.2933 13.7648 18.0827 13.7648 17.8974C13.7501 17.8806 13.7427 17.8637 13.7427 17.8469V17.7711C13.6393 17.7711 13.5581 17.7711 13.499 17.7711C13.44 17.7542 13.3809 17.7374 13.3218 17.7205C13.2775 17.6868 13.2185 17.6616 13.1446 17.6447C13.0708 17.611 12.96 17.5773 12.8124 17.5436C12.6942 17.5773 12.6056 17.5942 12.5466 17.5942C12.4875 17.5942 12.3989 17.5942 12.2808 17.5942C11.9412 17.5605 11.6458 17.5352 11.3948 17.5184C11.1438 17.5015 10.9223 17.4931 10.7303 17.4931C10.5531 17.4763 10.3833 17.4678 10.2208 17.4678C10.0732 17.4678 9.91813 17.4678 9.7557 17.4678C8.75157 17.5352 7.96895 17.5773 7.40782 17.5942C6.84669 17.5942 6.52921 17.5942 6.45537 17.5942C6.05668 17.5942 5.76873 17.5015 5.59153 17.3162C5.4291 17.1309 5.34788 16.8867 5.34788 16.5835C5.34788 16.4487 5.37742 16.2802 5.43648 16.0781C5.51031 15.876 5.59891 15.6822 5.70228 15.4969C5.80565 15.2948 5.9164 15.1095 6.03453 14.941C6.16743 14.7726 6.28556 14.6631 6.38893 14.6126H6.98697L11.4391 14.6631H12.5023C12.7385 14.6631 12.9305 14.6547 13.0782 14.6378C13.2406 14.6041 13.4473 14.5536 13.6984 14.4862C13.7279 14.4862 13.7796 14.4778 13.8534 14.4609C13.942 14.4441 14.0306 14.4357 14.1192 14.4357C14.2226 14.4188 14.3112 14.402 14.385 14.3851C14.4736 14.3683 14.5253 14.3599 14.5401 14.3599L14.5844 14.3093C14.6287 14.2588 14.6508 14.1998 14.6508 14.1325C14.9904 13.5092 15.2636 12.9112 15.4704 12.3384C15.6919 11.7489 15.906 11.0077 16.1127 10.1149C16.1275 9.9464 16.1496 9.76953 16.1792 9.58423C16.2235 9.38208 16.2678 9.19678 16.3121 9.02833C16.3564 8.84303 16.3933 8.69142 16.4228 8.57351C16.4671 8.43874 16.4893 8.35452 16.4893 8.32083C16.6074 8.18606 16.6812 8.04288 16.7107 7.89127C16.7403 7.72282 16.7698 7.56279 16.7993 7.41118C16.8879 7.10796 16.9618 6.80475 17.0208 6.50153C17.0799 6.19832 17.1464 5.91194 17.2202 5.64242C17.294 5.37289 17.3826 5.12021 17.486 4.88438C17.5894 4.64855 17.7296 4.43798 17.9068 4.25268C18.0397 4.11792 18.18 4.04211 18.3277 4.02527C18.4754 4.00842 18.6969 4 18.9922 4C19.2137 4 19.3909 4.05054 19.5238 4.15161C19.6567 4.23583 19.7527 4.34533 19.8117 4.48009C19.8856 4.59801 19.9299 4.73277 19.9446 4.88438C19.9742 5.03599 19.9889 5.16233 19.9889 5.2634C19.9889 5.36447 19.9742 5.50766 19.9446 5.69296C19.9151 5.86141 19.8782 6.02986 19.8339 6.19832C19.7896 6.36677 19.7527 6.5268 19.7231 6.67841C19.6936 6.81317 19.6788 6.90582 19.6788 6.95636C19.6198 7.25957 19.5607 7.51225 19.5016 7.71439C19.4573 7.89969 19.413 8.05972 19.3687 8.19449C19.3392 8.32925 19.3097 8.45559 19.2801 8.57351C19.2506 8.67458 19.2284 8.7925 19.2137 8.92726C19.2137 8.97779 19.1915 9.08729 19.1472 9.25574C19.1177 9.4242 19.0808 9.61792 19.0365 9.83691C18.9922 10.0391 18.9479 10.2412 18.9036 10.4433C18.874 10.6286 18.8519 10.7634 18.8371 10.8476C18.7485 11.3025 18.6526 11.673 18.5492 11.9594C18.4458 12.2458 18.3425 12.4985 18.2391 12.7175C18.1357 12.9364 18.0397 13.1554 17.9511 13.3744C17.8625 13.5766 17.7961 13.8292 17.7518 14.1325L20.7863 14.3599H22.514C22.765 14.3599 23.0235 14.3599 23.2893 14.3599C23.5698 14.343 23.843 14.3178 24.1088 14.2841C24.3746 14.2335 24.6256 14.1746 24.8619 14.1072C25.0982 14.023 25.2975 13.9135 25.4599 13.7787C25.4599 13.7787 25.5042 13.6271 25.5928 13.3239C25.6814 13.0038 25.7774 12.6585 25.8808 12.2879C25.9989 11.9005 26.0949 11.5467 26.1687 11.2266C26.2426 10.8897 26.2721 10.696 26.2573 10.6455L26.5453 9.81164C26.6191 9.59265 26.6856 9.39051 26.7446 9.20521C26.8185 9.00306 26.8997 8.70827 26.9883 8.32083C27.0916 7.93338 27.195 7.57963 27.2984 7.25957C27.4165 6.93951 27.5346 6.64472 27.6528 6.37519C27.7709 6.08882 27.889 5.8193 28.0072 5.56662C28.1253 5.29709 28.236 5.01914 28.3394 4.73277C28.5609 4.68224 28.7529 4.65697 28.9153 4.65697C29.1516 4.65697 29.3362 4.66539 29.4691 4.68224C29.6167 4.69908 29.7496 4.74962 29.8678 4.83384C30.0745 4.96861 30.2 5.10337 30.2443 5.23813C30.3034 5.35605 30.3477 5.5245 30.3772 5.74349C30.3772 5.81087 30.3477 5.93721 30.2886 6.12251C30.2443 6.29096 30.1852 6.47626 30.1114 6.67841C30.0523 6.88055 29.9933 7.06585 29.9342 7.2343C29.8899 7.38591 29.8678 7.47014 29.8678 7.48698C29.853 7.58806 29.8308 7.71439 29.8013 7.866C29.7718 8.00077 29.7422 8.14395 29.7127 8.29556C29.6832 8.43032 29.6536 8.55666 29.6241 8.67458C29.5946 8.77565 29.5724 8.84303 29.5577 8.87672C29.4838 9.1294 29.4321 9.33155 29.4026 9.48315C29.3731 9.63476 29.3362 9.77795 29.2919 9.91271C29.2623 10.0475 29.218 10.2075 29.159 10.3928C29.1147 10.5781 29.0334 10.8308 28.9153 11.1508L28.6717 12.2626C28.6421 12.4311 28.62 12.5743 28.6052 12.6922C28.6052 12.8101 28.6052 12.9196 28.6052 13.0207C28.6052 13.1217 28.5978 13.2312 28.5831 13.3492C28.5683 13.4671 28.5388 13.6103 28.4945 13.7787L29.6684 13.8798C29.8308 13.8798 30.0228 13.9051 30.2443 13.9556C30.4806 13.9893 30.7242 14.0061 30.9752 14.0061C31.1081 14.0061 31.3296 13.9977 31.6397 13.9809C31.9498 13.964 32.2009 13.9556 32.3928 13.9556H34.3863L36.114 13.8292C36.365 13.8292 36.5718 13.9472 36.7342 14.183C36.9114 14.4188 37 14.6968 37 15.0168C37 15.3874 36.9705 15.6654 36.9114 15.8507C36.8523 16.036 36.6899 16.196 36.4241 16.3308C36.2764 16.3982 36.0992 16.4571 35.8925 16.5077C35.6858 16.5582 35.4643 16.6087 35.228 16.6593C35.0065 16.693 34.785 16.7182 34.5635 16.7351C34.3568 16.7519 34.1722 16.7603 34.0098 16.7603C33.7735 16.7603 33.5963 16.7856 33.4782 16.8361C33.3748 16.8698 33.2419 16.8867 33.0795 16.8867H31.1746C30.9383 16.9204 30.7685 16.9372 30.6651 16.9372C30.5618 16.9372 30.4732 16.9372 30.3993 16.9372H29.4026C29.2106 16.9709 28.967 16.9962 28.6717 17.013C28.3763 17.013 28.1474 17.013 27.985 17.013C27.7783 17.013 27.6011 17.0636 27.4534 17.1646C27.3058 17.2657 27.2172 17.3162 27.1876 17.3162C26.9218 17.6026 26.7151 17.8721 26.5674 18.1248C26.4345 18.3775 26.3238 18.647 26.2352 18.9334C26.1466 19.2029 26.0654 19.4977 25.9915 19.8178C25.9325 20.1378 25.8586 20.5 25.77 20.9043C25.711 21.1401 25.6519 21.3423 25.5928 21.5107C25.5485 21.6792 25.4969 21.8392 25.4378 21.9908C25.3935 22.1424 25.3418 22.3024 25.2827 22.4709C25.2384 22.6225 25.1868 22.7994 25.1277 23.0015C25.0539 23.1194 25.0096 23.2374 24.9948 23.3553C24.98 23.4732 24.9726 23.5911 24.9726 23.709C24.9726 23.7933 25.0243 23.8354 25.1277 23.8354C25.2163 23.8017 25.3049 23.7848 25.3935 23.7848C25.4969 23.7848 25.6002 23.7848 25.7036 23.7848C25.9103 23.7848 26.1392 23.7933 26.3902 23.8101C26.6413 23.827 26.8849 23.8354 27.1212 23.8354H27.4091L28.5609 23.8859C28.7676 23.8859 29.0187 23.8775 29.314 23.8606C29.6241 23.8438 29.8973 23.8354 30.1336 23.8354L32.0827 23.7596L33.8547 23.5827C34.1648 23.6501 34.4159 23.8354 34.6078 24.1386C34.7998 24.425 34.881 24.6608 34.8515 24.8461C34.8219 25.2335 34.7407 25.4946 34.6078 25.6294C34.4749 25.7473 34.3125 25.8821 34.1205 26.0337C33.8252 26.2527 33.4486 26.4043 32.9909 26.4885C32.5479 26.5559 32.1492 26.5896 31.7948 26.5896C31.7505 26.5896 31.6767 26.598 31.5733 26.6149C31.4699 26.6317 31.3592 26.6485 31.241 26.6654C31.1229 26.6654 31.0122 26.6738 30.9088 26.6907C30.8202 26.7075 30.7685 26.7159 30.7537 26.7159C30.6504 26.7159 30.5027 26.7243 30.3107 26.7412C30.1336 26.758 29.9416 26.7833 29.7349 26.817C29.5281 26.8338 29.314 26.8507 29.0925 26.8675C28.8858 26.8844 28.7086 26.8928 28.5609 26.8928C28.4871 26.9265 28.4132 26.9433 28.3394 26.9433C28.2803 26.9433 28.2139 26.9433 28.1401 26.9433C28.0072 26.9433 27.8521 26.9518 27.6749 26.9686C27.4977 26.9855 27.3574 26.9939 27.2541 26.9939H27.1433C27.0104 27.0276 26.8923 27.0613 26.7889 27.0949C26.6856 27.1118 26.5896 27.1202 26.501 27.1202C26.3828 27.1202 26.2721 27.1118 26.1687 27.0949C26.0654 27.0781 25.9546 27.0697 25.8365 27.0697H25.6593L23.998 27.0191C23.9094 27.1371 23.8356 27.3224 23.7765 27.575C23.7175 27.8109 23.651 28.0214 23.5772 28.2067L23.0899 29.925C23.0604 29.9923 23.0235 30.0934 22.9792 30.2282C22.9349 30.3461 22.8906 30.4809 22.8463 30.6325C22.802 30.7672 22.765 30.8936 22.7355 31.0115C22.706 31.1294 22.6838 31.2136 22.6691 31.2642C22.5509 31.6179 22.4697 31.879 22.4254 32.0475C22.3811 32.1991 22.3368 32.3338 22.2925 32.4518C22.263 32.5528 22.2261 32.6707 22.1818 32.8055C22.1375 32.9403 22.0562 33.1593 21.9381 33.4625C21.9086 33.5972 21.8717 33.7404 21.8274 33.892C21.7831 34.0268 21.7461 34.17 21.7166 34.3216C21.6132 34.6753 21.5468 34.9617 21.5173 35.1807C21.4877 35.3997 21.4139 35.6524 21.2958 35.9387C21.2662 36.023 21.2072 36.1493 21.1186 36.3178C21.03 36.4862 20.9488 36.621 20.8749 36.7221C20.6682 36.84 20.5058 36.9158 20.3876 36.9495C20.2695 36.9832 20.0997 37 19.8782 37C19.7453 37 19.605 36.9663 19.4573 36.8989C19.3097 36.8315 19.1694 36.7389 19.0365 36.621C18.9036 36.4862 18.7928 36.3346 18.7042 36.1662C18.6156 35.9977 18.5713 35.8124 18.5713 35.6103C18.5713 35.5597 18.5713 35.5092 18.5713 35.4587C18.5713 35.3913 18.5787 35.3323 18.5935 35.2818L18.9922 33.9426ZM17.9511 16.9372C17.6263 16.9372 17.3752 16.9625 17.198 17.013C17.0208 17.0636 16.8732 17.1562 16.755 17.291C16.6517 17.4257 16.5631 17.6194 16.4893 17.8721C16.4154 18.108 16.3121 18.4196 16.1792 18.807C16.1349 19.0766 16.0906 19.2956 16.0463 19.464C16.002 19.6325 15.9503 19.7757 15.8912 19.8936C15.8321 20.0115 15.7731 20.1294 15.714 20.2473C15.6549 20.3484 15.5959 20.4832 15.5368 20.6516C15.4334 20.9548 15.3448 21.1822 15.271 21.3338C15.2119 21.4855 15.1529 21.6202 15.0938 21.7381C15.0495 21.8392 14.9978 21.9487 14.9388 22.0666C14.8945 22.1845 14.828 22.353 14.7394 22.572C14.636 22.8415 14.5622 23.0268 14.5179 23.1279C14.4884 23.2289 14.4736 23.3806 14.4736 23.5827V24.2649L18.3277 24.0628C18.4311 24.0628 18.623 24.0796 18.9036 24.1133C19.1841 24.1302 19.6714 24.1807 20.3655 24.2649C20.7051 24.2649 21.03 24.2565 21.3401 24.2397C21.6649 24.2228 21.9529 24.1639 22.2039 24.0628C22.2482 24.0628 22.3147 23.9196 22.4033 23.6332C22.5066 23.33 22.61 22.9931 22.7134 22.6225C22.8315 22.2351 22.9422 21.8645 23.0456 21.5107C23.1637 21.1401 23.245 20.879 23.2893 20.7274C23.3631 20.4916 23.4295 20.2557 23.4886 20.0199C23.5477 19.7672 23.6436 19.523 23.7765 19.2871C23.8947 19.0008 23.9833 18.7228 24.0423 18.4533C24.1162 18.1838 24.1531 17.8216 24.1531 17.3668C23.9021 17.0804 23.6879 16.9035 23.5107 16.8361C23.3483 16.7519 23.1711 16.7098 22.9792 16.7098L20.299 16.9877L17.9511 16.9372Z" fill="black" fill-opacity="0.5"/>
</svg>
